<svg id="Layer_1" data-name="Layer 1" xmlns="http://www.w3.org/2000/svg" viewBox="0 0 512 512"><defs><style>.cls-1{fill:#727272;}</style></defs><title>user-network-2-handdrawn</title><path class="cls-1" d="M207.71,388.17A4.11,4.11,0,0,0,208,385a9.22,9.22,0,0,0-.52-1.42l-.71-1.77-1.68-3.44a45.84,45.84,0,0,0-9.55-12l0,0a48.35,48.35,0,0,0-36.89-12,47.75,47.75,0,0,0-33.82,18.75,53.1,53.1,0,0,0-6.1,10.61c-.4.79-.49,1.1-.66,1.36a7.71,7.71,0,0,0-.34.94,6.1,6.1,0,0,0-.32,2.09,11.11,11.11,0,0,0,1.21,4.86c1.49,3.29,4.28,5.91,5.64,8.53.72,1.36-.32,2.84-3.36,3.41s-8-.35-12.26-4.42a15.92,15.92,0,0,1-2.1-2.49A20.4,20.4,0,0,1,104,381a24.3,24.3,0,0,1,1.27-3.33c.43-1,.79-1.94,1.28-2.88,1-1.86,1.87-3.76,3-5.51A62.41,62.41,0,0,1,126.43,351a59.1,59.1,0,0,1,14.84-7.68,22.15,22.15,0,0,1-1.75-2.42,28.78,28.78,0,0,0-1.7-2.54c-5.76-6.8-7.54-16.6-5.23-25a32,32,0,0,1,15.62-19.64,28.35,28.35,0,0,1,27.81.48,26.26,26.26,0,0,1,11.91,14.5,19.53,19.53,0,0,1,.53,9.84c-.41,2-2.35,2-3.32.62-2.56-3.57-4.69-6.39-7-9.82a17.94,17.94,0,0,0-11.05-7.44,18.55,18.55,0,0,0-22.26,17.28h0a18.59,18.59,0,0,0,29,16.37,28.17,28.17,0,0,0,4.77-4.33c4.27-4.33,8.1-9.13,13.43-11,2.67-1,5.62,3,4.35,9a7,7,0,0,1-.45,1.63,39,39,0,0,1-10.35,14.32,54.57,54.57,0,0,1,23.94,17,56.66,56.66,0,0,1,9.29,16.51,20.44,20.44,0,0,1,1.39,5.23,15.73,15.73,0,0,1-.39,5.89,17.64,17.64,0,0,1-6.17,9.43,18.16,18.16,0,0,1-12,3.8l-10.2-.39-20.37-1c-9.51-.44-19-1-28.41-1.7-5.29-.4-10.48-1.13-15.49-1.92-3.22-.51-3.41-2.46-.78-3.36a71.47,71.47,0,0,1,24.38-3.53l30.83.22,18,0h2.25l1.25-.06a7.24,7.24,0,0,0,1.94-.57A6,6,0,0,0,207.71,388.17Zm76-161.32c4.74-3.75,9.41-7.66,14-11.65,6.56-5.69,13.22-11.3,19.5-17.32,10.71-10.25,22.48-19.31,32.12-30.77a10,10,0,0,1,2-1.66c15.49-10.45,26.92-26.17,41.48-37.8a8,8,0,0,0,.9-.95,11.75,11.75,0,0,0,.92-1.36c1.52,1.36,3.07,2.68,4.67,4a68.61,68.61,0,0,0,16.7,8.94c12,4.59,25.29,5.21,37.92,2.88,25.49-5.08,47-24.36,55.8-48.58a19.63,19.63,0,0,0,1-3.49A34.84,34.84,0,0,0,512,80.32a21.38,21.38,0,0,0-.58-6.64c-.84-3.54-2.1-5.07-3.53-4.06-5.5,3.86-8.89,19-21,34.07a65.42,65.42,0,0,1-14.45,13.79c-17.73,12.32-42.4,13.31-61.09,2.61-19-10.37-30.89-32.08-29.51-53.67h0a57.67,57.67,0,0,1,104.61-31.1,97.78,97.78,0,0,1,14.46,31.34c1.1,3.82,3,3.7,3.28-1.36a57.7,57.7,0,0,0-4.09-24A65.57,65.57,0,0,0,469.76,7.9a67.74,67.74,0,0,0-64.84.73,71.8,71.8,0,0,0-34.52,45.46c-4.72,19.18-.61,40.74,11.68,56.52,1.41,1.7,2.64,3.88,4.08,5.55.18.25.39.48.58.73a25.16,25.16,0,0,0-10.67,5.65c-2.31,2-4.49,4.16-6.65,6.32q-20.88,20.9-41.73,41.83l0,0q-16.22,16.26-32.45,32.51-7,7-14.06,13.78a31,31,0,0,0-8.36,13.15,159.1,159.1,0,0,0-38.88-27.94c-35.25-18.42-77.76-22.1-116.32-11.15a6.65,6.65,0,0,0,.73-3.56,18.69,18.69,0,0,0-.94-3.61q-3.75-11.38-7.54-22.74h0c-2-5.89-3.93-11.78-5.86-17.68q-1.24-3.79-2.31-7.64s0-.08-.06-.13a77.48,77.48,0,0,0,39.57-43.1,19.63,19.63,0,0,0,1-3.49,34.84,34.84,0,0,0,1.21-8.73,21.38,21.38,0,0,0-.58-6.64c-.84-3.54-2.1-5.07-3.53-4.06-5.5,3.86-8.89,19-21,34.07a65.42,65.42,0,0,1-14.45,13.79c-17.73,12.32-42.4,13.31-61.09,2.61C23.81,109.71,11.9,88,13.28,66.41h0a57.67,57.67,0,0,1,104.61-31.1A97.78,97.78,0,0,1,132.4,66.65c1.1,3.82,3,3.7,3.28-1.36a57.7,57.7,0,0,0-4.09-24A65.57,65.57,0,0,0,101.26,7.9a67.74,67.74,0,0,0-64.84.73A71.8,71.8,0,0,0,1.9,54.09c-4.72,19.18-.61,40.74,11.68,56.52,1.41,1.7,2.64,3.88,4.08,5.55A66.75,66.75,0,0,0,30.82,129.3a68.61,68.61,0,0,0,16.7,8.94c12,4.59,25.29,5.21,37.92,2.88A69.61,69.61,0,0,0,93,139.07c.13,1.68.24,3.37.47,5a87.54,87.54,0,0,0,1.83,10.52c1.57,5.81,1.61,12.09,4.72,17.43a1.79,1.79,0,0,1,.1,1.07c-1,8.13,4.15,14.52,4.6,22.23a151.56,151.56,0,0,0-22,10.38C43.52,228,14,267,4.07,311.44a162.71,162.71,0,0,0-.88,67.79,157.58,157.58,0,0,0,27.63,62.15c3.17,4,6.16,8.87,9.61,12.56l6.87,8c2.46,2.53,5.07,4.93,7.62,7.4,4.93,5.16,10.94,9.06,16.47,13.59l9.07,5.76L85,491.59,89.84,494l9.69,4.78,10.13,3.84A69.74,69.74,0,0,0,120,505.89l10.52,2.73,10.75,1.7,5.39.82,5.44.3L163,512l10.9-.5c7.3,0,14.45-1.71,21.67-2.68,14.17-3.27,28.32-7.38,41.22-14.27a72.41,72.41,0,0,0,9.61-5.19l9.33-5.7c5.73-4.49,11.94-8.39,17.13-13.52,11.14-9.41,20.31-20.85,28.64-32.69,3.79-6.18,7.85-12.22,10.82-18.84a143.84,143.84,0,0,0,7.82-18.13c1.2.74,2.38,1.54,3.61,2.21a87.14,87.14,0,0,0,9.5,4.84c5.58,2.22,10.62,6,16.75,6.66a1.77,1.77,0,0,1,.91.56c5.56,5.42,13.23,5.43,19.5,9.05-4.64,19.13-.53,40.59,11.72,56.3,1.41,1.7,2.64,3.88,4.08,5.55a66.77,66.77,0,0,0,13.15,13.14,68.59,68.59,0,0,0,16.7,8.94c12,4.59,25.29,5.21,37.92,2.88,25.49-5.08,47-24.36,55.8-48.58a19.63,19.63,0,0,0,1-3.49,34.84,34.84,0,0,0,1.21-8.73,21.38,21.38,0,0,0-.58-6.64c-.84-3.54-2.1-5.07-3.53-4.06-5.5,3.86-8.89,19-21,34.07A65.42,65.42,0,0,1,472.39,487c-17.73,12.32-42.4,13.31-61.09,2.61-19-10.37-30.89-32.08-29.51-53.67h0a57.67,57.67,0,0,1,104.61-31.1,97.77,97.77,0,0,1,14.46,31.34c1.1,3.82,3,3.7,3.28-1.36a57.7,57.7,0,0,0-4.09-24,65.57,65.57,0,0,0-30.33-33.39,67.74,67.74,0,0,0-64.84.72,72.49,72.49,0,0,0-29.87,32.24,6.31,6.31,0,0,0-1.79-1.65,18.53,18.53,0,0,0-3.44-1.41q-11.33-3.81-22.67-7.58v0c-5.88-2-11.76-3.9-17.62-5.9-2.22-.75-4.41-1.57-6.6-2.41l.14-.57,2.38-10.17c.55-3.27.79-6.42,1.1-9.34s.51-5.65.65-8.13c-.08-2.51-.2-4.77-.35-6.77-.62-8-1.77-11.63-3.27-9.25s-2.86,6.28-4.25,11.76c-.57,2.75-1.58,5.82-2.63,9.21s-1.87,7.15-3.26,11.1a182.54,182.54,0,0,1-28.55,55.87A157.34,157.34,0,0,1,247.84,471c-23.07,15.45-50.24,24.89-78.06,25.76-6.94.69-13.87-.19-20.81-.39-3.45-.32-6.86-1-10.3-1.48a63.82,63.82,0,0,1-10.19-2c-13.63-2.83-26.42-8.62-38.64-15.09C77.67,471,66.78,462.17,56.77,452.55a165.71,165.71,0,0,1-24.9-33.31c-13.19-24.44-20.07-52.46-18.35-80.32h0c1.87-43.23,23.44-85.26,58-111.45a149,149,0,0,1,213,30.74,177.8,177.8,0,0,1,22.17,41.62c4.67,13.83,8.42,27.1,9.74,39.92,1.39,9.63,3.3,9.1,3.2-3.09a149.43,149.43,0,0,0-12.39-57,152.84,152.84,0,0,0-32-47.11l.09,0A80.84,80.84,0,0,0,283.72,226.86Z"/></svg>